# xmcd
#
# Track frame offsets: 
#        150
#        18297
#        39070
#        63205
#        96367
#        118510
#        143310
#        159857
#        191667
#        211005
#        225037
#
# Disc length: 3308 seconds
#
# Revision: 3
# Processed by: cddbd v1.4PL0 Copyright (c) Steve Scherf et al.
# Submitted via: ExactAudioCopy v0.90b3
#
DISCID=710cea0b
DTITLE=The Charlie Daniels Band - Road Dogs
DYEAR=2000
DGENRE=Country
TTITLE0=Road Dogs
TTITLE1=Ain't No Law In California
TTITLE2=Even Up The Score
TTITLE3=Across The Line
TTITLE4=The Martyr
TTITLE5=How Much I Love You
TTITLE6=Wild Wild Young Men
TTITLE7=Sidewinder
TTITLE8=Standing In The Rain
TTITLE9=It's About Time
TTITLE10=Sail Away
EXTD=
EXTT0=
EXTT1=
EXTT2=
EXTT3=
EXTT4=
EXTT5=
EXTT6=
EXTT7=
EXTT8=
EXTT9=
EXTT10=
PLAYORDER=
